<svg width="24" height="24" viewBox="0 0 24 24" fill="none" xmlns="http://www.w3.org/2000/svg">
<path d="M12 1.5C16.6788 1.5 20.5 5.17952 20.5 10C20.5 11.203 20.0529 12.4664 19.4795 13.6201L19.2275 14.1074C18.5164 15.4272 17.5864 16.7507 16.6846 17.9121L16.6836 17.9131C15.6556 19.2287 14.5623 20.4919 13.4092 21.6992L13.415 21.7051L13.085 22.0342L13.0859 22.0352L12.71 22.4111L12.6484 22.3496C12.6239 22.3614 12.6004 22.3753 12.5752 22.3857C12.3928 22.4615 12.1965 22.5 11.999 22.5C11.8017 22.4999 11.6061 22.4614 11.4238 22.3857C11.2415 22.31 11.0758 22.1985 10.9365 22.0586L10.9238 22.0459L10.9141 22.0352L10.9111 22.0332L10.9121 22.0322L10.8496 21.9697L10.8477 21.9668C10.4915 21.5999 10.1403 21.2276 9.7959 20.8496V20.8486C8.93251 19.9019 8.10531 18.9228 7.31641 17.9131L7.31445 17.9111C6.52648 16.8952 5.71644 15.7543 5.0498 14.6025L4.77344 14.1084H4.77246C4.0834 12.8289 3.5 11.3747 3.5 10C3.5 5.17952 7.32123 1.5 12 1.5ZM12 7.5C11.337 7.5 10.7013 7.76358 10.2324 8.23242C9.76358 8.70126 9.5 9.33696 9.5 10C9.5 10.663 9.76358 11.2987 10.2324 11.7676C10.7013 12.2364 11.337 12.5 12 12.5C12.663 12.5 13.2987 12.2364 13.7676 11.7676C14.2364 11.2987 14.5 10.663 14.5 10C14.5 9.33696 14.2364 8.70126 13.7676 8.23242C13.2987 7.76358 12.663 7.5 12 7.5Z" fill="#A33AFF" stroke="white"/>
<circle cx="12" cy="10" r="2" fill="white"/>
</svg>
