<svg width="24" height="24" viewBox="0 0 24 24" fill="none" xmlns="http://www.w3.org/2000/svg">
<path d="M11.924 0C6.99543 0 3 3.96499 3 8.85606C3 10.4918 3.32262 12.1812 4.24843 13.3988L11.924 23.4938L19.5996 13.3988C20.4405 12.2928 20.848 10.3376 20.848 8.85606C20.848 3.96499 16.8526 0 11.924 0Z" fill="#3A81FF"/>
<path d="M12.0307 13.5988C8.97049 13.6179 7.08429 11.5742 7.10354 8.40353C7.08429 5.27107 9.00898 3.15094 11.9153 3.13184C14.4174 3.15094 16.573 4.69806 16.573 8.25073V9.01474H9.45166C9.5094 10.7529 10.5102 11.7652 12.0692 11.7652C13.1278 11.7652 13.8207 11.3068 14.1479 10.6956H16.496C16.0533 12.4528 14.4174 13.6179 12.0307 13.5988ZM9.45166 7.37211H14.2634C14.2634 6.01599 13.3395 5.00367 11.9538 5.00367C10.5102 5.00367 9.5479 6.07329 9.45166 7.37211Z" fill="white"/>
</svg>
