<svg width="90" height="16" viewBox="0 0 90 16" fill="none" xmlns="http://www.w3.org/2000/svg">
<path d="M89.3758 4.28474V6.36743H87.0941V12.3118C87.0941 13.4399 87.6426 13.6569 88.3227 13.6569C88.6518 13.6785 89.1784 13.6352 89.5514 13.6135V15.8263C89.2003 15.8914 88.6738 15.9348 87.9717 15.9565C85.9313 15.9348 84.3517 14.9368 84.3736 12.7891V6.36743H82.7062V4.28474H84.3736V1.50781H87.0941V4.28474H89.3758Z" fill="#3A81FF"/>
<path d="M76.4674 15.9995C72.979 16.0212 70.8289 13.6999 70.8509 10.0986C70.8289 6.54065 73.0229 4.13254 76.3358 4.11084C79.188 4.13254 81.6452 5.88981 81.6452 9.92502V10.7928H73.5275C73.5933 12.767 74.7342 13.9169 76.5113 13.9169C77.718 13.9169 78.5078 13.3962 78.8808 12.7019H81.5575C81.0528 14.6979 79.188 16.0212 76.4674 15.9995ZM73.5275 8.92707H79.0124C79.0124 7.38674 77.9593 6.23692 76.3797 6.23692C74.7342 6.23692 73.6372 7.45183 73.5275 8.92707Z" fill="#3A81FF"/>
<path d="M68.9171 0.422852V15.7827H66.1965V0.422852H68.9171Z" fill="#3A81FF"/>
<path d="M58.1671 15.7826V4.2844H60.7999V6.19353H60.9315C61.3484 4.87016 62.4673 4.11084 63.7837 4.11084C64.1128 4.11084 64.5516 4.13254 64.7929 4.19762V6.67082C64.5516 6.58404 63.9811 6.51895 63.5204 6.49726C62.0066 6.51895 60.8876 7.5386 60.8876 9.01385V15.7826H58.1671Z" fill="#3A81FF"/>
<path d="M51.0508 15.9995C47.5624 16.0212 45.4123 13.6999 45.4342 10.0986C45.4123 6.54065 47.6063 4.13254 50.9192 4.11084C53.7713 4.13254 56.2286 5.88981 56.2286 9.92502V10.7928H48.1109C48.1767 12.767 49.3176 13.9169 51.0947 13.9169C52.3014 13.9169 53.0912 13.3962 53.4642 12.7019H56.1408C55.6362 14.6979 53.7713 16.0212 51.0508 15.9995ZM48.1109 8.92707H53.5958C53.5958 7.38674 52.5427 6.23692 50.9631 6.23692C49.3176 6.23692 48.2206 7.45183 48.1109 8.92707Z" fill="#3A81FF"/>
<path d="M27.1747 15.7826V4.2844H29.7636V6.23692H29.9391C30.3998 4.91354 31.5846 4.13254 33.1423 4.11084C34.7 4.13254 35.8189 4.93524 36.2577 6.23692H36.3894C36.9159 4.95693 38.1884 4.13254 39.8997 4.11084C42.0279 4.13254 43.5198 5.4993 43.5417 8.05928V15.7826H40.7773V8.49317C40.7992 7.03963 39.9217 6.38879 38.8027 6.41048C37.4644 6.38879 36.6746 7.29996 36.6965 8.57995V15.7826H34.0199V8.363C34.0199 7.16979 33.2081 6.38879 32.0453 6.41048C30.8606 6.38879 29.8952 7.36505 29.8952 8.7969V15.7826H27.1747Z" fill="#3A81FF"/>
<path d="M14.7561 15.7827V0.422852H24.8484V2.76588H17.5205V6.93126H24.3218V9.27429H17.5205V13.4831H24.8923V15.7827H14.7561Z" fill="#3A81FF"/>
<path d="M6.04606 0C2.70692 0 0 2.67668 0 5.97855C0 7.08277 0.218575 8.22325 0.845818 9.04526L6.04606 15.8602L11.2463 9.04526C11.816 8.29864 12.0921 6.97873 12.0921 5.97855C12.0921 2.67668 9.3852 0 6.04606 0Z" fill="#3A81FF"/>
<path d="M6.11845 9.1808C4.04512 9.19369 2.76721 7.814 2.78025 5.67356C2.76721 3.5589 4.0712 2.12764 6.04022 2.11475C7.7354 2.12764 9.19586 3.17207 9.19586 5.57041V6.08618H4.37111C4.41023 7.25955 5.0883 7.94295 6.14453 7.94295C6.86173 7.94295 7.33116 7.63349 7.55284 7.22087H9.1437C8.84379 8.40714 7.7354 9.19369 6.11845 9.1808ZM4.37111 4.97727H7.63108C7.63108 4.06178 7.00516 3.37838 6.06629 3.37838C5.0883 3.37838 4.43631 4.10046 4.37111 4.97727Z" fill="white"/>
</svg>
