<svg width="24" height="24" viewBox="0 0 24 24" fill="none" xmlns="http://www.w3.org/2000/svg">
<path d="M18.618 7.46232L6.403 2.08532C6.28208 2.03189 6.15177 2.00296 6.0196 2.00022C5.88743 1.99747 5.75603 2.02096 5.633 2.06932C5.51006 2.1179 5.39798 2.19037 5.30323 2.28255C5.20848 2.37472 5.13295 2.48477 5.081 2.60632L2.081 9.60632C1.97653 9.85005 1.97315 10.1253 2.07161 10.3715C2.17006 10.6178 2.36228 10.8148 2.606 10.9193L9.563 13.9003L8.323 17.0003H4V14.0003H2V22.0003H4V19.0003H8.323C9.146 19.0003 9.875 18.5063 10.179 17.7423L11.401 14.6883L14.82 16.1533C15.0626 16.2576 15.3367 16.2616 15.5823 16.1646C15.8279 16.0675 16.0252 15.8773 16.131 15.6353L19.131 8.77832C19.2371 8.53574 19.2427 8.26096 19.1466 8.01426C19.0504 7.76755 18.8603 7.56906 18.618 7.46232ZM19.93 16.3723L18.072 15.6303L20.07 10.6303L21.928 11.3713L19.93 16.3723Z" fill="#1D1D1F"/>
</svg>
