<svg width="24" height="24" viewBox="0 0 24 24" fill="none" xmlns="http://www.w3.org/2000/svg">
<path d="M12 22C12.6193 22.0008 13.2235 21.8086 13.7285 21.4502C14.2335 21.0917 14.6143 20.5849 14.818 20H9.182C9.38566 20.5849 9.76648 21.0917 10.2715 21.4502C10.7765 21.8086 11.3807 22.0008 12 22ZM19 14.586V10C19 6.783 16.815 4.073 13.855 3.258C13.562 2.52 12.846 2 12 2C11.154 2 10.438 2.52 10.145 3.258C7.185 4.074 5 6.783 5 10V14.586L3.293 16.293C3.10545 16.4805 3.00006 16.7348 3 17V18C3 18.2652 3.10536 18.5196 3.29289 18.7071C3.48043 18.8946 3.73478 19 4 19H20C20.2652 19 20.5196 18.8946 20.7071 18.7071C20.8946 18.5196 21 18.2652 21 18V17C20.9999 16.7348 20.8946 16.4805 20.707 16.293L19 14.586Z" fill="#1D1D1F"/>
</svg>
