<svg width="24" height="24" viewBox="0 0 24 24" fill="none" xmlns="http://www.w3.org/2000/svg">
<path d="M19.8086 11.9922L19.3047 18.1367C19.1758 19.7266 16.8086 19.5078 16.9375 17.9453L17.3281 13.1602L15.7227 13.25C16.1172 14.0586 16.3398 14.9648 16.3398 15.9258C16.3398 17.5352 15.7109 19 14.6875 20.0859L13.1523 18.5508C15.4141 16.0625 13.6641 12.0195 10.2617 12.0195C9.25 12.0195 8.32812 12.4062 7.63672 13.0352L6.10156 11.5C6.96094 10.6914 8.05859 10.1289 9.28125 9.92969L12.2227 6.58203L10.5586 5.61328L8.54297 7.41016C7.37109 8.45703 5.78516 6.6875 6.96094 5.63672L9.61719 3.26563C10 2.92188 10.5586 2.86719 11.0039 3.125C11.0039 3.125 16.4453 6.28516 16.4531 6.29297C17.0859 6.6875 17.2617 7.69922 16.6914 8.34766L14.4102 10.9453L18.5547 10.7148C19.2773 10.6719 19.8672 11.2773 19.8086 11.9922ZM17.2734 5.97656C18.3711 5.97656 19.2617 5.08594 19.2617 3.98828C19.2617 2.89063 18.3711 2 17.2734 2C16.1758 2 15.2852 2.89063 15.2852 3.98828C15.2852 5.08594 16.1758 5.97656 17.2734 5.97656ZM10.2656 19.832C7.11719 19.832 5.28906 16.293 7.03516 13.7344L5.48437 12.1836C4.67187 13.2109 4.1875 14.5117 4.1875 15.9219C4.1875 21.0273 10.0742 23.7891 14.0078 20.707L12.457 19.1563C11.832 19.582 11.0781 19.832 10.2656 19.832Z" fill="#1D1D1F"/>
</svg>
