<svg width="24" height="25" viewBox="0 0 24 25" fill="none" xmlns="http://www.w3.org/2000/svg">
<path fill-rule="evenodd" clip-rule="evenodd" d="M12 21.4941L12.708 22.2001C12.6151 22.2934 12.5047 22.3674 12.3831 22.4179C12.2615 22.4684 12.1312 22.4944 11.9995 22.4944C11.8678 22.4944 11.7375 22.4684 11.6159 22.4179C11.4943 22.3674 11.3839 22.2934 11.291 22.2001L11.285 22.1931L11.268 22.1761L11.206 22.1131C10.8535 21.75 10.5068 21.3813 10.166 21.0071C9.31072 20.0693 8.49146 19.0993 7.71 18.0991C6.818 16.9491 5.906 15.6491 5.213 14.3651C4.535 13.1061 4 11.7421 4 10.4941C4 5.95514 7.592 2.49414 12 2.49414C16.408 2.49414 20 5.95514 20 10.4941C20 11.7421 19.465 13.1061 18.787 14.3641C18.094 15.6501 17.183 16.9491 16.29 18.0991C15.1968 19.4983 14.0298 20.8382 12.794 22.1131L12.732 22.1761L12.715 22.1931L12.709 22.1991L12 21.4941ZM12 13.4941C12.7956 13.4941 13.5587 13.1781 14.1213 12.6155C14.6839 12.0529 15 11.2898 15 10.4941C15 9.69849 14.6839 8.93543 14.1213 8.37282C13.5587 7.81021 12.7956 7.49414 12 7.49414C11.2044 7.49414 10.4413 7.81021 9.87868 8.37282C9.31607 8.93543 9 9.69849 9 10.4941C9 11.2898 9.31607 12.0529 9.87868 12.6155C10.4413 13.1781 11.2044 13.4941 12 13.4941Z" fill="#3A81FF"/>
</svg>
