<svg width="24" height="24" viewBox="0 0 24 24" fill="none" xmlns="http://www.w3.org/2000/svg">
<path d="M12 8C12.7957 8 13.5587 7.68393 14.1214 7.12132C14.684 6.55871 15 5.79565 15 5C15 4.20435 14.684 3.44129 14.1214 2.87868C13.5587 2.31607 12.7957 2 12 2C11.2044 2 10.4413 2.31607 9.87871 2.87868C9.3161 3.44129 9.00003 4.20435 9.00003 5C9.00003 5.79565 9.3161 6.55871 9.87871 7.12132C10.4413 7.68393 11.2044 8 12 8ZM15 15.25V14H9.00003V15.25C9.00003 15.25 9.15803 15.434 9.42303 15.684C9.79503 16.034 10.379 16.512 11.031 16.785L11.101 16.815C11.393 16.928 11.696 17 12 17C12.38 17 12.761 16.887 13.117 16.72C13.814 16.39 14.417 15.85 14.742 15.523C14.906 15.36 15 15.25 15 15.25ZM9.00003 10.927C7.92301 10.8514 6.85247 10.7018 5.79603 10.479C5.53639 10.4249 5.30887 10.2699 5.16353 10.048C5.01818 9.82615 4.96693 9.55565 5.02103 9.296C5.07514 9.03635 5.23017 8.80883 5.45202 8.66349C5.67388 8.51815 5.94439 8.4669 6.20403 8.521C8.49603 8.999 10.129 9 12 9C13.871 9 15.504 8.999 17.796 8.521C17.9246 8.49421 18.0572 8.49301 18.1862 8.51745C18.3152 8.5419 18.4382 8.59153 18.548 8.66349C18.6579 8.73546 18.7525 8.82836 18.8264 8.93688C18.9004 9.04541 18.9522 9.16744 18.979 9.296C19.0058 9.42456 19.007 9.55715 18.9826 9.68618C18.9581 9.81521 18.9085 9.93816 18.8365 10.048C18.7646 10.1579 18.6717 10.2525 18.5632 10.3264C18.4546 10.4004 18.3326 10.4522 18.204 10.479C17.004 10.729 15.964 10.859 15 10.927V13H9.00003V10.927ZM8.05103 20.816C7.54203 19.288 7.86503 17.822 8.80103 16.47C8.95003 16.608 9.12603 16.76 9.32403 16.914C9.61603 17.142 9.99703 17.404 10.437 17.614C9.78003 18.566 9.68903 19.405 9.94903 20.184C9.99053 20.3086 10.0071 20.4402 9.99772 20.5712C9.98837 20.7022 9.9533 20.8301 9.89452 20.9476C9.83574 21.0651 9.7544 21.1698 9.65514 21.2558C9.55589 21.3419 9.44066 21.4075 9.31603 21.449C9.19141 21.4905 9.05983 21.507 8.92881 21.4977C8.79779 21.4883 8.6699 21.4533 8.55243 21.3945C8.3152 21.2758 8.13484 21.0677 8.05103 20.816ZM13.792 17.498C14.525 18.498 14.634 19.374 14.364 20.184C14.3191 20.3094 14.2998 20.4425 14.307 20.5755C14.3143 20.7085 14.348 20.8387 14.4063 20.9584C14.4645 21.0782 14.5461 21.1851 14.6463 21.273C14.7464 21.3608 14.8631 21.4277 14.9894 21.4698C15.1158 21.5119 15.2493 21.5283 15.3821 21.5181C15.5149 21.5079 15.6443 21.4713 15.7628 21.4104C15.8812 21.3495 15.9863 21.2655 16.0719 21.1635C16.1574 21.0614 16.2217 20.9433 16.261 20.816C16.793 19.222 16.417 17.694 15.386 16.293C15.206 16.47 14.963 16.691 14.676 16.914C14.398 17.1328 14.1023 17.3281 13.792 17.498Z" fill="#1D1D1F"/>
</svg>
