<svg width="200" height="58" viewBox="0 0 200 58" fill="none" xmlns="http://www.w3.org/2000/svg">
<path d="M199.577 29.1311V34.1733H194.072V48.5645C194.072 51.2957 195.395 51.8209 197.036 51.8209C197.83 51.8734 199.1 51.7684 200 51.7159V57.0732C199.153 57.2307 197.883 57.3358 196.189 57.3883C191.267 57.3358 187.457 54.9197 187.51 49.72V34.1733H183.487V29.1311H187.51V22.4082H194.072V29.1311H199.577Z" fill="#3A81FF"/>
<path d="M168.437 57.4934C160.022 57.5459 154.835 51.926 154.888 43.2072C154.835 34.5935 160.128 28.7635 168.12 28.7109C175 28.7635 180.928 33.0178 180.928 42.787V44.8879H161.345C161.504 49.6675 164.256 52.4512 168.543 52.4512C171.454 52.4512 173.359 51.1906 174.259 49.5099H180.716C179.499 54.342 175 57.5459 168.437 57.4934ZM161.345 40.371H174.577C174.577 36.6419 172.036 33.8582 168.226 33.8582C164.256 33.8582 161.61 36.7994 161.345 40.371Z" fill="#3A81FF"/>
<path d="M150.223 19.7822V56.9683H143.661V19.7822H150.223Z" fill="#3A81FF"/>
<path d="M124.291 56.9681V29.1311H130.642V33.7531H130.96C131.965 30.5492 134.664 28.7109 137.84 28.7109C138.634 28.7109 139.692 28.7635 140.275 28.921V34.9086C139.692 34.6985 138.316 34.541 137.205 34.4884C133.553 34.541 130.854 37.0095 130.854 40.5811V56.9681H124.291Z" fill="#3A81FF"/>
<path d="M29.9576 56.9681V29.1311H36.2029V33.8582H36.6263C37.7377 30.6543 40.5957 28.7635 44.3534 28.7109C48.1111 28.7635 50.8104 30.7068 51.8689 33.8582H52.1864C53.4566 30.7593 56.5263 28.7635 60.6545 28.7109C65.7883 28.7635 69.3873 32.0724 69.4402 38.2701V56.9681H62.7716V39.3205C62.8245 35.8015 60.7075 34.2258 58.0082 34.2783C54.7798 34.2258 52.8745 36.4318 52.9274 39.5306V56.9681H46.4704V39.0054C46.4704 36.1166 44.5122 34.2258 41.7071 34.2783C38.8492 34.2258 36.5204 36.5893 36.5204 40.0558V56.9681H29.9576Z" fill="#3A81FF"/>
<path d="M0 56.9683V19.7822H24.3458V25.4547H6.66863V35.539H23.0756V41.2115H6.66863V51.4009H24.4517V56.9683H0Z" fill="#3A81FF"/>
<path d="M95.4417 0C83.3822 0 73.606 9.70173 73.606 21.6695C73.606 25.6718 74.3954 29.8055 76.6607 32.7849L95.4417 57.4858L114.223 32.7849C116.28 30.0787 117.277 25.2946 117.277 21.6695C117.277 9.70173 107.501 0 95.4417 0Z" fill="#3A81FF"/>
<path d="M95.7031 33.2752C88.2151 33.3219 83.5999 28.3212 83.647 20.5631C83.5999 12.8985 88.3093 7.7108 95.4205 7.66406C101.543 7.7108 106.817 11.4964 106.817 20.1892V22.0586H89.3925C89.5338 26.3116 91.9826 28.7886 95.7973 28.7886C98.3875 28.7886 100.083 27.6669 100.883 26.1714H106.629C105.546 30.4711 101.543 33.3219 95.7031 33.2752ZM89.3925 18.0394H101.166C101.166 14.7211 98.9055 12.2442 95.5147 12.2442C91.9826 12.2442 89.6279 14.8614 89.3925 18.0394Z" fill="white"/>
</svg>
